<svg width="16" height="16" viewBox="0 0 16 16" fill="none" xmlns="http://www.w3.org/2000/svg">
    <mask id="mask0_1_126" style="mask-type:alpha" maskUnits="userSpaceOnUse" x="0" y="0" width="16"
        height="16">
        <rect width="16" height="16" fill="#D9D9D9" />
    </mask>
    <g mask="url(#mask0_1_126)">
        <path
            d="M4 14.6667C3.44444 14.6667 2.97222 14.4722 2.58333 14.0833C2.19444 13.6944 2 13.2222 2 12.6667V3.33333C2 2.77777 2.19444 2.30555 2.58333 1.91666C2.97222 1.52777 3.44444 1.33333 4 1.33333H11.3333V12H4C3.81111 12 3.65278 12.0639 3.525 12.1917C3.39722 12.3194 3.33333 12.4778 3.33333 12.6667C3.33333 12.8555 3.39722 13.0139 3.525 13.1417C3.65278 13.2694 3.81111 13.3333 4 13.3333H12.6667V2.66666H14V14.6667H4ZM6 10.6667H10V2.66666H6V10.6667ZM4.66667 10.6667V2.66666H4C3.81111 2.66666 3.65278 2.73055 3.525 2.85833C3.39722 2.98611 3.33333 3.14444 3.33333 3.33333V10.7833C3.44444 10.75 3.55278 10.7222 3.65833 10.7C3.76389 10.6778 3.87778 10.6667 4 10.6667H4.66667Z"
            fill="#F1F3F5" />
    </g>
</svg>