<svg width="12" height="14" viewBox="0 0 12 14" fill="none" xmlns="http://www.w3.org/2000/svg">
    <path
        d="M4.33337 11C3.96671 11 3.65282 10.8694 3.39171 10.6083C3.1306 10.3472 3.00004 10.0333 3.00004 9.66665V1.66665C3.00004 1.29998 3.1306 0.986091 3.39171 0.72498C3.65282 0.463869 3.96671 0.333313 4.33337 0.333313H10.3334C10.7 0.333313 11.0139 0.463869 11.275 0.72498C11.5362 0.986091 11.6667 1.29998 11.6667 1.66665V9.66665C11.6667 10.0333 11.5362 10.3472 11.275 10.6083C11.0139 10.8694 10.7 11 10.3334 11H4.33337ZM4.33337 9.66665H10.3334V1.66665H4.33337V9.66665ZM1.66671 13.6666C1.30004 13.6666 0.986152 13.5361 0.725041 13.275C0.46393 13.0139 0.333374 12.7 0.333374 12.3333V2.99998H1.66671V12.3333H9.00004V13.6666H1.66671Z"
        fill="#080809" />
</svg>